mtllib Door03_Frame.mtl
o Door03_Frame
usemtl 01_- Default
v -600 2100.000002185569 49.99990820608506
v 600 2100.000002185569 49.99990820608506
v 600 2099.999995191747 -110.00009179391492
v -600 2100.000002185569 49.99990820608506
v 600 2099.999995191747 -110.00009179391492
v -600 2099.999995191747 -110.00009179391492
v 600 0.0000021855694032346683 49.99999999999999
v 600 -0.00000480825268711627 -109.99999999999999
v 600 2099.999995191747 -110.00009179391492
v 600 0.0000021855694032346683 49.99999999999999
v 600 2099.999995191747 -110.00009179391492
v 600 2100.000002185569 49.99990820608506
v -600 -0.00000480825268711627 -109.99999999999999
v -600 0.0000021855694032346683 49.99999999999999
v -600 2100.000002185569 49.99990820608506
v -600 -0.00000480825268711627 -109.99999999999999
v -600 2100.000002185569 49.99990820608506
v -600 2099.999995191747 -110.00009179391492
v 500 2000.0000021855692 49.99991257722386
v -500 2000.0000021855692 49.99991257722386
v -500 1999.999995191747 -110.00008742277612
v 500 2000.0000021855692 49.99991257722386
v -500 1999.999995191747 -110.00008742277612
v 500 1999.999995191747 -110.00008742277612
v 500 -0.00000480825268711627 -109.99999999999999
v 500 0.0000021855694032346683 49.99999999999999
v 500 2000.0000021855692 49.99991257722386
v 500 -0.00000480825268711627 -109.99999999999999
v 500 2000.0000021855692 49.99991257722386
v 500 1999.999995191747 -110.00008742277612
v 600 2100.000002185569 49.99990820608506
v -600 2100.000002185569 49.99990820608506
v -500 2000.0000021855692 49.99991257722386
v 600 2100.000002185569 49.99990820608506
v -500 2000.0000021855692 49.99991257722386
v 500 2000.0000021855692 49.99991257722386
v -600 2099.999995191747 -110.00009179391492
v 600 2099.999995191747 -110.00009179391492
v 500 1999.999995191747 -110.00008742277612
v -600 2099.999995191747 -110.00009179391492
v 500 1999.999995191747 -110.00008742277612
v -500 1999.999995191747 -110.00008742277612
v 600 2099.999995191747 -110.00009179391492
v 600 -0.00000480825268711627 -109.99999999999999
v 500 -0.00000480825268711627 -109.99999999999999
v 600 2099.999995191747 -110.00009179391492
v 500 -0.00000480825268711627 -109.99999999999999
v 500 1999.999995191747 -110.00008742277612
v 600 0.0000021855694032346683 49.99999999999999
v 600 2100.000002185569 49.99990820608506
v 500 2000.0000021855692 49.99991257722386
v 600 0.0000021855694032346683 49.99999999999999
v 500 2000.0000021855692 49.99991257722386
v 500 0.0000021855694032346683 49.99999999999999
v -600 2100.000002185569 49.99990820608506
v -600 0.0000021855694032346683 49.99999999999999
v -500 0.0000021855694032346683 49.99999999999999
v -600 2100.000002185569 49.99990820608506
v -500 0.0000021855694032346683 49.99999999999999
v -500 2000.0000021855692 49.99991257722386
v -600 -0.00000480825268711627 -109.99999999999999
v -600 2099.999995191747 -110.00009179391492
v -500 1999.999995191747 -110.00008742277612
v -600 -0.00000480825268711627 -109.99999999999999
v -500 1999.999995191747 -110.00008742277612
v -500 -0.00000480825268711627 -109.99999999999999
v -500 -0.00000480825268711627 -109.99999999999999
v -500 1999.999995191747 -110.00008742277612
v -500 2000.0000021855692 49.99991257722386
v -500 -0.00000480825268711627 -109.99999999999999
v -500 2000.0000021855692 49.99991257722386
v -500 0.0000021855694032346683 49.99999999999999
v -480 0 0
v -480 1979.9999999999998 -0.00008654854836809286
v -480 1980.0000013113415 29.99991345145163
v -480 0 0
v -480 1980.0000013113415 29.99991345145163
v -480 0.000001311341641940801 29.999999999999996
v 480 1980.0000013113415 29.99991345145163
v -480 1980.0000013113415 29.99991345145163
v -480 1979.9999999999998 -0.00008654854836809286
v 480 1980.0000013113415 29.99991345145163
v -480 1979.9999999999998 -0.00008654854836809286
v 480 1979.9999999999998 -0.00008654854836809286
v 480 0.000001311341641940801 29.999999999999996
v 480 1980.0000013113415 29.99991345145163
v 480 1979.9999999999998 -0.00008654854836809286
v 480 0.000001311341641940801 29.999999999999996
v 480 1979.9999999999998 -0.00008654854836809286
v 480 0 0
v -500 0 0
v -500 1999.9999999999998 -0.00008742277612938673
v -480 1979.9999999999998 -0.00008654854836809286
v -500 0 0
v -480 1979.9999999999998 -0.00008654854836809286
v -480 0 0
v -500 1999.9999999999998 -0.00008742277612938673
v 500 1999.9999999999998 -0.00008742277612938673
v 480 1979.9999999999998 -0.00008654854836809286
v -500 1999.9999999999998 -0.00008742277612938673
v 480 1979.9999999999998 -0.00008654854836809286
v -480 1979.9999999999998 -0.00008654854836809286
v 500 1999.9999999999998 -0.00008742277612938673
v 500 0 0
v 480 0 0
v 500 1999.9999999999998 -0.00008742277612938673
v 480 0 0
v 480 1979.9999999999998 -0.00008654854836809286
v 500 0.000001311341641940801 29.999999999999996
v 500 2000.0000013113415 29.999912577223867
v 480 1980.0000013113415 29.99991345145163
v 500 0.000001311341641940801 29.999999999999996
v 480 1980.0000013113415 29.99991345145163
v 480 0.000001311341641940801 29.999999999999996
v 500 2000.0000013113415 29.999912577223867
v -500 2000.0000013113415 29.999912577223867
v -480 1980.0000013113415 29.99991345145163
v 500 2000.0000013113415 29.999912577223867
v -480 1980.0000013113415 29.99991345145163
v 480 1980.0000013113415 29.99991345145163
v -500 2000.0000013113415 29.999912577223867
v -500 0.000001311341641940801 29.999999999999996
v -480 0.000001311341641940801 29.999999999999996
v -500 2000.0000013113415 29.999912577223867
v -480 0.000001311341641940801 29.999999999999996
v -480 1980.0000013113415 29.99991345145163
vt 0.6519320011138916 0.24297499656677246
vt 0.6519320011138916 0.530460774898529
vt 0.613600492477417 0.530460774898529
vt 0.6519320011138916 0.24297499656677246
vt 0.613600492477417 0.530460774898529
vt 0.613600492477417 0.24297499656677246
vt 0.4896295666694641 0.4805094599723816
vt 0.5279611349105835 0.4805094599723816
vt 0.5279611349105835 0.979815661907196
vt 0.4896295666694641 0.4805094599723816
vt 0.5279611349105835 0.979815661907196
vt 0.4896295666694641 0.979815661907196
vt 0.4896295666694641 0.4805094599723816
vt 0.5279611349105835 0.4805094599723816
vt 0.5279611349105835 0.979815661907196
vt 0.4896295666694641 0.4805094599723816
vt 0.5279611349105835 0.979815661907196
vt 0.4896295666694641 0.979815661907196
vt 0.6528741121292114 0.530620276927948
vt 0.6528741121292114 0.2910483479499817
vt 0.691205620765686 0.29104840755462646
vt 0.6528741121292114 0.530620276927948
vt 0.691205620765686 0.29104840755462646
vt 0.691205620765686 0.530620276927948
vt 0.5334950685501099 0.0024614930152893066
vt 0.49516361951828003 0.0024614930152893066
vt 0.49516361951828003 0.47982490062713623
vt 0.5334950685501099 0.0024614930152893066
vt 0.49516361951828003 0.47982490062713623
vt 0.5334950685501099 0.4798247814178467
vt 0.5601677894592285 0.565143883228302
vt 0.5601677894592285 0.27765750885009766
vt 0.5841246843338013 0.3016146421432495
vt 0.5601677894592285 0.565143883228302
vt 0.5841246843338013 0.3016146421432495
vt 0.5841246843338013 0.5411868691444397
vt 0.5601677894592285 0.565143883228302
vt 0.5601677894592285 0.27765727043151855
vt 0.5841249227523804 0.30161476135253906
vt 0.5601677894592285 0.565143883228302
vt 0.5841249227523804 0.30161476135253906
vt 0.5841249227523804 0.5411867499351501
vt 0.46491849422454834 0.9798815846443176
vt 0.46491849422454834 0.48057520389556885
vt 0.4888756573200226 0.48057520389556885
vt 0.46491849422454834 0.9798815846443176
vt 0.4888756573200226 0.48057520389556885
vt 0.4888756573200226 0.9559245705604553
vt 0.46491849422454834 0.48057520389556885
vt 0.46491849422454834 0.9798815846443176
vt 0.4888756573200226 0.9559245705604553
vt 0.46491849422454834 0.48057520389556885
vt 0.4888756573200226 0.9559245705604553
vt 0.4888756573200226 0.48057520389556885
vt 0.46491849422454834 0.9798815846443176
vt 0.46491849422454834 0.48057520389556885
vt 0.4888756573200226 0.48057520389556885
vt 0.46491849422454834 0.9798815846443176
vt 0.4888756573200226 0.48057520389556885
vt 0.4888756573200226 0.9559245705604553
vt 0.46491849422454834 0.48057520389556885
vt 0.46491849422454834 0.9798815846443176
vt 0.4888756573200226 0.9559245705604553
vt 0.46491849422454834 0.48057520389556885
vt 0.4888756573200226 0.9559245705604553
vt 0.4888756573200226 0.48057520389556885
vt 0.5334950685501099 0.0024614930152893066
vt 0.5334950685501099 0.47982466220855713
vt 0.4951634705066681 0.47982466220855713
vt 0.5334950685501099 0.0024614930152893066
vt 0.4951634705066681 0.47982466220855713
vt 0.4951634705066681 0.0024614334106445312
vt 0.9695786833763123 0.990106999874115
vt 0.4861784279346466 0.990106999874115
vt 0.4861784279346466 0.982782781124115
vt 0.9695786833763123 0.990106999874115
vt 0.4861784279346466 0.982782781124115
vt 0.9695786833763123 0.982782781124115
vt 0.008152547292411327 0.7248535752296448
vt 0.008152547292411327 0.49047791957855225
vt 0.015476766042411327 0.49047791957855225
vt 0.008152547292411327 0.7248535752296448
vt 0.015476766042411327 0.49047791957855225
vt 0.015476766042411327 0.7248535752296448
vt 0.9695786833763123 0.990106999874115
vt 0.4861784279346466 0.990106999874115
vt 0.4861784279346466 0.982782781124115
vt 0.9695786833763123 0.990106999874115
vt 0.4861784279346466 0.982782781124115
vt 0.9695786833763123 0.982782781124115
vt 0.9741708040237427 0.9904244542121887
vt 0.48589593172073364 0.9904244542121887
vt 0.4907786250114441 0.995307445526123
vt 0.9741708040237427 0.9904244542121887
vt 0.4907786250114441 0.995307445526123
vt 0.9741708040237427 0.995307445526123
vt 0.0015242358203977346 0.7411061525344849
vt 0.0015242358203977346 0.49696266651153564
vt 0.006407108157873154 0.5018457174301147
vt 0.0015242358203977346 0.7411061525344849
vt 0.006407108157873154 0.5018457174301147
vt 0.006406988948583603 0.7362231016159058
vt 0.4858958125114441 0.9904246926307678
vt 0.9741708040237427 0.9904246926307678
vt 0.9741708040237427 0.995307445526123
vt 0.4858958125114441 0.9904246926307678
vt 0.9741708040237427 0.995307445526123
vt 0.49077850580215454 0.995307445526123
vt 0.9741767644882202 0.9904244542121887
vt 0.4858899712562561 0.9904244542121887
vt 0.4907727837562561 0.995307207107544
vt 0.9741767644882202 0.9904244542121887
vt 0.4907727837562561 0.995307207107544
vt 0.9741767644882202 0.995307207107544
vt 0.001523997401818633 0.7411061525344849
vt 0.0015240570064634085 0.49696266651153564
vt 0.006406810134649277 0.5018455386161804
vt 0.001523997401818633 0.7411061525344849
vt 0.006406810134649277 0.5018455386161804
vt 0.006406810134649277 0.7362233996391296
vt 0.4858899712562561 0.9904246926307678
vt 0.9741767644882202 0.9904246926307678
vt 0.9741767644882202 0.995307445526123
vt 0.4858899712562561 0.9904246926307678
vt 0.9741767644882202 0.995307445526123
vt 0.4907727837562561 0.995307445526123
vn 0 0.9999999999999992 -4.371138806469333e-8
vn 0 0.9999999999999992 -4.371138806469333e-8
vn 0 0.9999999999999992 -4.371138806469333e-8
vn 0 0.9999999999999992 -4.371138806469333e-8
vn 0 0.9999999999999992 -4.371138806469333e-8
vn 0 0.9999999999999992 -4.371138806469333e-8
vn 1 0 0
vn 1 0 0
vn 1 0 0
vn 1 0 0
vn 1 0 0
vn 1 0 0
vn -1 0 0
vn -1 0 0
vn -1 0 0
vn -1 0 0
vn -1 0 0
vn -1 0 0
vn 0 -0.9999999999999992 4.371138806469333e-8
vn 0 -0.9999999999999992 4.371138806469333e-8
vn 0 -0.9999999999999992 4.371138806469333e-8
vn 0 -0.9999999999999992 4.371138806469333e-8
vn 0 -0.9999999999999992 4.371138806469333e-8
vn 0 -0.9999999999999992 4.371138806469333e-8
vn -1 0 0
vn -1 0 0
vn -1 0 0
vn -1 0 0
vn -1 0 0
vn -1 0 0
vn 0 4.371138806469333e-8 0.9999999999999992
vn 0 4.371138806469333e-8 0.9999999999999992
vn 0 4.371138806469333e-8 0.9999999999999992
vn 0 4.371138806469333e-8 0.9999999999999992
vn 0 4.371138806469333e-8 0.9999999999999992
vn 0 4.371138806469333e-8 0.9999999999999992
vn 0 -4.371138806469333e-8 -0.9999999999999992
vn 0 -4.371138806469333e-8 -0.9999999999999992
vn 0 -4.371138806469333e-8 -0.9999999999999992
vn 0 -4.371138806469333e-8 -0.9999999999999992
vn 0 -4.371138806469333e-8 -0.9999999999999992
vn 0 -4.371138806469333e-8 -0.9999999999999992
vn 0 -4.371138806469333e-8 -0.9999999999999992
vn 0 -4.371138806469333e-8 -0.9999999999999992
vn 0 -4.371138806469333e-8 -0.9999999999999992
vn 0 -4.371138806469333e-8 -0.9999999999999992
vn 0 -4.371138806469333e-8 -0.9999999999999992
vn 0 -4.371138806469333e-8 -0.9999999999999992
vn 0 4.371138806469333e-8 0.9999999999999992
vn 0 4.371138806469333e-8 0.9999999999999992
vn 0 4.371138806469333e-8 0.9999999999999992
vn 0 4.371138806469333e-8 0.9999999999999992
vn 0 4.371138806469333e-8 0.9999999999999992
vn 0 4.371138806469333e-8 0.9999999999999992
vn 0 4.371138806469333e-8 0.9999999999999992
vn 0 4.371138806469333e-8 0.9999999999999992
vn 0 4.371138806469333e-8 0.9999999999999992
vn 0 4.371138806469333e-8 0.9999999999999992
vn 0 4.371138806469333e-8 0.9999999999999992
vn 0 4.371138806469333e-8 0.9999999999999992
vn 0 -4.371138806469333e-8 -0.9999999999999992
vn 0 -4.371138806469333e-8 -0.9999999999999992
vn 0 -4.371138806469333e-8 -0.9999999999999992
vn 0 -4.371138806469333e-8 -0.9999999999999992
vn 0 -4.371138806469333e-8 -0.9999999999999992
vn 0 -4.371138806469333e-8 -0.9999999999999992
vn 1 0 0
vn 1 0 0
vn 1 0 0
vn 1 0 0
vn 1 0 0
vn 1 0 0
vn 1 0 0
vn 1 0 0
vn 1 0 0
vn 1 0 0
vn 1 0 0
vn 1 0 0
vn 0 -0.9999999999999992 4.371138806469333e-8
vn 0 -0.9999999999999992 4.371138806469333e-8
vn 0 -0.9999999999999992 4.371138806469333e-8
vn 0 -0.9999999999999992 4.371138806469333e-8
vn 0 -0.9999999999999992 4.371138806469333e-8
vn 0 -0.9999999999999992 4.371138806469333e-8
vn -1 0 0
vn -1 0 0
vn -1 0 0
vn -1 0 0
vn -1 0 0
vn -1 0 0
vn 0 -4.371138806469333e-8 -0.9999999999999992
vn 0 -4.371138806469333e-8 -0.9999999999999992
vn 0 -4.371138806469333e-8 -0.9999999999999992
vn 0 -4.371138806469333e-8 -0.9999999999999992
vn 0 -4.371138806469333e-8 -0.9999999999999992
vn 0 -4.371138806469333e-8 -0.9999999999999992
vn 0 -4.371138806469333e-8 -0.9999999999999992
vn 0 -4.371138806469333e-8 -0.9999999999999992
vn 0 -4.371138806469333e-8 -0.9999999999999992
vn 0 -4.371138806469333e-8 -0.9999999999999992
vn 0 -4.371138806469333e-8 -0.9999999999999992
vn 0 -4.371138806469333e-8 -0.9999999999999992
vn 0 -4.371138806469333e-8 -0.9999999999999992
vn 0 -4.371138806469333e-8 -0.9999999999999992
vn 0 -4.371138806469333e-8 -0.9999999999999992
vn 0 -4.371138806469333e-8 -0.9999999999999992
vn 0 -4.371138806469333e-8 -0.9999999999999992
vn 0 -4.371138806469333e-8 -0.9999999999999992
vn 0 4.371138806469333e-8 0.9999999999999992
vn 0 4.371138806469333e-8 0.9999999999999992
vn 0 4.371138806469333e-8 0.9999999999999992
vn 0 4.371138806469333e-8 0.9999999999999992
vn 0 4.371138806469333e-8 0.9999999999999992
vn 0 4.371138806469333e-8 0.9999999999999992
vn 0 4.371138806469333e-8 0.9999999999999992
vn 0 4.371138806469333e-8 0.9999999999999992
vn 0 4.371138806469333e-8 0.9999999999999992
vn 0 4.371138806469333e-8 0.9999999999999992
vn 0 4.371138806469333e-8 0.9999999999999992
vn 0 4.371138806469333e-8 0.9999999999999992
vn 0 4.371138806469333e-8 0.9999999999999992
vn 0 4.371138806469333e-8 0.9999999999999992
vn 0 4.371138806469333e-8 0.9999999999999992
vn 0 4.371138806469333e-8 0.9999999999999992
vn 0 4.371138806469333e-8 0.9999999999999992
vn 0 4.371138806469333e-8 0.9999999999999992
f 1/1/1 2/2/2 3/3/3
f 4/4/4 5/5/5 6/6/6
f 7/7/7 8/8/8 9/9/9
f 10/10/10 11/11/11 12/12/12
f 13/13/13 14/14/14 15/15/15
f 16/16/16 17/17/17 18/18/18
f 19/19/19 20/20/20 21/21/21
f 22/22/22 23/23/23 24/24/24
f 25/25/25 26/26/26 27/27/27
f 28/28/28 29/29/29 30/30/30
f 31/31/31 32/32/32 33/33/33
f 34/34/34 35/35/35 36/36/36
f 37/37/37 38/38/38 39/39/39
f 40/40/40 41/41/41 42/42/42
f 43/43/43 44/44/44 45/45/45
f 46/46/46 47/47/47 48/48/48
f 49/49/49 50/50/50 51/51/51
f 52/52/52 53/53/53 54/54/54
f 55/55/55 56/56/56 57/57/57
f 58/58/58 59/59/59 60/60/60
f 61/61/61 62/62/62 63/63/63
f 64/64/64 65/65/65 66/66/66
f 67/67/67 68/68/68 69/69/69
f 70/70/70 71/71/71 72/72/72
f 73/73/73 74/74/74 75/75/75
f 76/76/76 77/77/77 78/78/78
f 79/79/79 80/80/80 81/81/81
f 82/82/82 83/83/83 84/84/84
f 85/85/85 86/86/86 87/87/87
f 88/88/88 89/89/89 90/90/90
f 91/91/91 92/92/92 93/93/93
f 94/94/94 95/95/95 96/96/96
f 97/97/97 98/98/98 99/99/99
f 100/100/100 101/101/101 102/102/102
f 103/103/103 104/104/104 105/105/105
f 106/106/106 107/107/107 108/108/108
f 109/109/109 110/110/110 111/111/111
f 112/112/112 113/113/113 114/114/114
f 115/115/115 116/116/116 117/117/117
f 118/118/118 119/119/119 120/120/120
f 121/121/121 122/122/122 123/123/123
f 124/124/124 125/125/125 126/126/126
